<?xml version="1.0" standalone="no"?>
<!DOCTYPE svg PUBLIC "-//W3C//DTD SVG 20010904//EN"
 "http://www.w3.org/TR/2001/REC-SVG-20010904/DTD/svg10.dtd">
<svg version="1.0" xmlns="http://www.w3.org/2000/svg"
 width="1200.000000pt" height="1200.000000pt" viewBox="0 0 1200.000000 1200.000000"
 preserveAspectRatio="xMidYMid meet">
<metadata>
Created by potrace 1.16, written by Peter Selinger 2001-2019
</metadata>
<g transform="translate(0.000000,1200.000000) scale(0.100000,-0.100000)"
fill="#000000" stroke="none">
<path d="M4510 11679 c-550 -42 -956 -106 -1576 -248 -217 -50 -698 -198 -786
-243 -51 -25 -74 -61 -60 -93 15 -32 54 -51 159 -75 109 -25 191 -57 313 -122
241 -128 627 -414 839 -621 99 -98 221 -230 221 -241 0 -3 -7 -6 -15 -6 -9 0
-65 -16 -126 -36 -296 -95 -730 -319 -927 -478 -336 -270 -558 -539 -887
-1076 -220 -357 -249 -426 -206 -469 28 -28 52 -27 178 14 127 40 407 89 613
105 79 7 273 12 430 12 244 1 318 -3 515 -26 127 -14 256 -31 287 -37 l57 -11
-84 -93 c-92 -102 -251 -311 -339 -447 -225 -345 -358 -875 -343 -1368 7 -242
32 -320 102 -320 22 0 41 12 171 109 121 89 285 185 499 292 390 194 680 299
955 348 130 22 441 63 446 58 2 -1 -25 -23 -59 -47 -67 -49 -301 -279 -356
-351 -21 -27 -72 -68 -130 -106 -130 -84 -249 -181 -288 -235 -42 -58 -65
-150 -62 -249 1 -59 -2 -84 -13 -97 -35 -39 -248 -363 -286 -432 -90 -167
-163 -390 -163 -505 -1 -52 3 -62 26 -82 14 -13 35 -23 45 -23 10 0 60 28 111
61 58 39 119 71 166 85 101 33 114 31 138 -12 24 -45 101 -110 152 -128 22 -8
69 -17 104 -20 61 -7 66 -9 108 -57 24 -28 68 -64 97 -81 l54 -30 -42 -32
c-62 -47 -123 -80 -205 -110 -39 -15 -76 -33 -81 -39 -20 -26 -21 -48 -3 -66
15 -15 41 -19 163 -24 91 -4 170 -2 208 5 70 12 74 10 84 -52 7 -46 49 -109
99 -149 93 -73 255 -99 400 -63 l77 19 0 -22 c0 -30 -23 -152 -56 -292 l-26
-113 -40 0 c-60 0 -264 -37 -365 -66 -173 -49 -282 -118 -330 -206 -12 -22
-17 -54 -17 -98 0 -75 28 -145 87 -223 21 -26 37 -51 37 -55 0 -4 -34 -38 -75
-76 -42 -37 -84 -85 -95 -106 -39 -76 -21 -183 40 -253 l37 -41 -61 -50 c-169
-141 -341 -326 -460 -496 -94 -134 -408 -664 -487 -821 -75 -148 -139 -339
-146 -433 -5 -67 -4 -74 21 -103 45 -53 74 -58 351 -57 343 1 598 36 887 125
494 150 711 236 1172 466 215 107 337 189 374 252 25 43 27 53 26 161 -2 215
-87 467 -231 681 l-54 82 23 15 c147 99 222 332 160 493 -9 24 -6 30 30 65 22
22 53 62 69 89 16 28 29 45 29 39 0 -7 20 -34 45 -62 25 -27 45 -56 45 -63 0
-8 -12 -38 -25 -68 -14 -30 -30 -88 -36 -129 -9 -65 -8 -82 10 -142 19 -60 86
-167 113 -178 4 -2 1 -16 -6 -31 -49 -93 -96 -422 -96 -663 0 -172 18 -284 58
-352 45 -77 136 -83 418 -30 104 19 263 48 354 64 218 38 325 60 665 134 115
25 492 146 793 255 583 209 1220 517 1375 663 77 73 43 127 -168 271 -388 265
-733 365 -1515 441 -85 9 -209 17 -275 20 l-119 4 -11 50 c-25 108 -87 196
-176 249 -25 15 -27 21 -31 112 -3 77 -9 107 -30 151 -31 68 -77 126 -125 158
-67 46 -200 41 -357 -14 -38 -13 -70 -23 -71 -21 -20 36 -136 381 -175 517
-42 152 -82 294 -116 412 -3 12 16 32 68 71 238 176 422 429 478 657 25 100
38 379 22 475 -5 33 -8 62 -6 64 2 2 53 -15 113 -38 141 -53 219 -71 306 -71
138 0 261 42 414 140 81 52 194 161 206 200 4 12 10 20 13 18 4 -2 48 -24 97
-48 l90 -45 115 0 c127 0 174 14 241 72 27 25 44 31 83 31 109 2 250 120 288
241 13 40 14 41 59 41 206 0 475 112 625 260 81 80 115 128 143 204 28 76 32
210 7 275 -15 42 -15 48 0 94 12 37 15 71 11 127 -6 89 -30 153 -85 219 -20
25 -42 67 -49 92 -28 108 -96 206 -180 260 l-43 27 37 33 c21 19 97 71 170
117 89 56 150 103 190 146 81 86 98 123 98 216 0 64 -4 82 -27 122 -85 144
-288 200 -453 124 -115 -52 -261 -196 -383 -376 -53 -80 -166 -296 -177 -343
l-7 -28 -22 20 c-54 51 -178 83 -273 70 -128 -16 -189 -46 -267 -128 -110
-119 -150 -311 -111 -537 13 -71 13 -90 3 -93 -7 -2 -37 -27 -67 -55 -51 -48
-111 -149 -111 -186 0 -8 -30 -31 -67 -50 -85 -45 -168 -120 -199 -182 -50
-99 -66 -225 -39 -314 5 -17 0 -23 -24 -33 -16 -7 -65 -39 -107 -72 -143 -107
-221 -136 -319 -118 -53 9 -179 68 -310 145 -44 25 -114 65 -155 87 -41 22
-86 48 -100 57 -14 10 -70 41 -124 70 -81 43 -96 55 -80 61 10 5 51 20 89 35
128 49 316 143 404 201 114 77 309 271 389 389 72 107 159 273 164 312 2 23
17 34 86 71 103 55 207 141 246 205 38 61 41 135 6 190 -29 48 -66 66 -135 66
-30 0 -55 2 -55 4 0 2 16 42 36 88 56 130 79 196 149 417 114 365 141 517 132
751 -4 85 -12 178 -20 205 l-14 50 37 55 c39 59 140 234 140 243 0 3 19 45 41
94 57 121 123 312 144 413 31 154 3 260 -80 300 -158 76 -628 25 -997 -110
-80 -29 -81 -29 -107 -11 -14 11 -39 34 -56 51 -38 41 -260 222 -345 282 -103
72 -419 281 -486 321 -174 104 -557 264 -794 332 -307 87 -602 126 -950 124
-129 -1 -282 -5 -340 -10z m725 -146 c443 -45 980 -222 1345 -443 179 -108
480 -313 595 -405 153 -123 404 -354 506 -466 108 -119 289 -371 289 -403 0
-6 -16 -20 -35 -30 -51 -28 -156 -141 -149 -160 10 -26 43 -18 74 17 37 43
127 91 163 89 50 -4 106 -40 137 -89 42 -66 60 -160 60 -312 0 -120 -21 -318
-27 -261 -20 170 -47 261 -91 302 -78 73 -142 64 -215 -32 -80 -107 -248 -423
-335 -631 -73 -175 -113 -248 -163 -294 -52 -49 -80 -55 -128 -31 -46 24 -98
90 -139 178 -37 77 -127 357 -202 628 -67 241 -131 379 -260 565 -129 185
-218 267 -385 354 -109 57 -206 82 -346 88 -181 9 -296 -26 -436 -131 -108
-81 -240 -250 -297 -380 -109 -245 -160 -631 -122 -911 17 -119 95 -460 120
-520 l13 -31 -80 23 c-215 62 -390 31 -512 -94 -150 -152 -196 -416 -112 -648
93 -256 328 -515 644 -707 l88 -53 -130 -7 c-71 -3 -175 -12 -230 -18 -55 -6
-140 -15 -190 -21 -386 -42 -708 -144 -1139 -360 -268 -135 -529 -291 -602
-361 l-31 -29 -7 32 c-11 59 -6 333 9 469 36 309 102 563 206 788 80 173 306
501 496 719 95 108 85 137 -64 186 -76 25 -186 43 -423 69 -148 16 -677 15
-875 -1 -164 -14 -516 -71 -590 -97 -26 -8 -48 -14 -50 -12 -8 8 310 503 439
683 75 106 182 242 236 304 111 122 287 285 395 366 226 167 735 427 953 486
42 12 83 27 91 34 8 8 14 34 15 58 1 37 -6 53 -44 103 -140 186 -478 483 -780
686 -200 135 -399 241 -534 286 -32 11 -54 22 -50 25 11 6 238 74 389 115 242
68 780 178 1030 211 393 53 473 62 680 77 335 24 551 23 800 -3z m3325 -942
c45 -84 -52 -376 -255 -770 l-58 -114 -26 30 c-33 37 -66 58 -121 74 -38 12
-46 19 -66 65 -26 60 -152 269 -198 329 -36 48 -144 173 -203 234 l-42 45 137
28 c334 69 520 95 699 97 111 1 123 -1 133 -18z m-2568 -480 c161 -27 319
-107 434 -220 73 -73 200 -254 268 -384 45 -86 93 -226 156 -457 95 -343 189
-578 267 -669 50 -59 126 -101 183 -101 l45 0 0 -108 c0 -82 4 -114 18 -139
48 -90 136 -64 198 59 65 128 87 235 97 463 l8 160 95 190 c142 281 224 415
254 415 8 0 22 -11 31 -24 33 -52 45 -130 54 -355 l9 -225 -49 -185 c-40 -153
-132 -448 -142 -456 -2 -1 -66 -24 -143 -50 -77 -26 -170 -63 -207 -82 l-67
-35 -65 16 c-92 24 -275 31 -376 17 -45 -7 -117 -25 -159 -41 -42 -15 -119
-43 -171 -63 -214 -79 -477 -115 -646 -88 -195 32 -337 102 -561 277 -52 41
-130 95 -173 121 -74 45 -81 52 -100 103 -32 82 -97 388 -116 540 -19 158 -15
288 16 460 42 230 84 358 162 492 53 90 230 271 305 311 107 57 247 78 375 58z
m4055 -1622 c75 -47 93 -126 44 -200 -34 -50 -75 -85 -217 -186 -90 -64 -214
-181 -214 -202 0 -5 -33 -10 -73 -13 -97 -4 -201 -54 -279 -133 l-56 -56 -5
43 c-4 38 3 57 55 158 167 321 395 574 556 615 55 14 143 2 189 -26z m-2563
-162 c-19 -56 -31 -66 -43 -35 -7 19 -3 29 22 55 17 18 32 31 34 30 2 -2 -4
-25 -13 -50z m-2369 -207 c88 -28 176 -79 306 -178 244 -185 293 -215 451
-270 145 -51 241 -65 413 -59 215 7 346 42 658 172 129 54 317 79 439 59 l38
-7 -27 -31 c-58 -69 -77 -150 -48 -205 41 -81 134 -111 279 -92 49 6 90 10 93
8 2 -3 -10 -28 -27 -57 -82 -139 -153 -234 -245 -326 -155 -155 -261 -224
-521 -333 -148 -62 -259 -94 -394 -115 -355 -54 -631 -35 -930 63 -377 125
-687 351 -876 638 -92 140 -138 324 -115 459 26 151 92 240 216 291 46 19 206
10 290 -17z m2773 -211 c-13 -18 -53 -49 -88 -71 -153 -92 -272 -82 -172 14
53 52 142 87 221 88 l64 0 -25 -31z m1150 -94 c31 -9 58 -25 66 -38 8 -12 20
-60 26 -107 16 -122 34 -178 101 -312 63 -126 70 -161 39 -200 -56 -72 -161
-54 -287 49 -52 43 -150 170 -177 230 -21 47 -43 61 -64 39 -13 -13 -11 -25
18 -97 18 -46 49 -110 68 -143 37 -63 159 -191 193 -201 28 -9 24 -19 -20 -43
-45 -26 -112 -104 -148 -175 -28 -56 -23 -74 9 -31 53 71 126 130 201 162 42
17 87 32 100 32 23 0 25 -4 25 -49 0 -93 62 -180 161 -224 69 -30 170 -21 264
26 81 41 205 129 214 153 9 24 -14 41 -35 26 -81 -59 -196 -109 -280 -122 -74
-13 -124 1 -173 48 -94 89 -57 177 111 262 25 13 77 44 115 70 149 100 224 94
335 -27 101 -110 129 -229 81 -339 -25 -55 -115 -151 -197 -210 -89 -64 -255
-140 -359 -165 -134 -32 -324 -32 -425 0 -80 25 -138 52 -181 83 -28 21 -49
18 -49 -6 0 -44 212 -166 330 -190 55 -11 64 -16 62 -32 -6 -31 -39 -70 -91
-108 -78 -58 -105 -65 -245 -67 -96 -1 -126 -4 -126 -14 0 -7 22 -18 50 -25
28 -7 50 -16 50 -20 0 -17 -105 -43 -172 -42 -57 0 -81 6 -143 35 -173 82
-276 205 -330 391 -35 121 2 254 98 347 33 32 64 59 68 59 4 0 10 -26 14 -57
9 -83 19 -108 40 -108 21 0 26 12 70 159 28 94 66 183 99 230 l20 29 23 -89
c33 -122 68 -197 90 -192 23 4 22 41 -1 123 -38 139 -60 298 -60 450 -1 167
11 225 63 306 73 115 219 165 359 124z m633 -56 c51 -18 125 -70 154 -108 13
-19 23 -36 22 -38 -2 -2 -27 1 -56 7 -130 25 -268 -27 -376 -141 -36 -39 -68
-69 -70 -67 -18 18 -65 145 -61 163 10 40 106 126 180 161 76 37 143 44 207
23z m155 -284 c94 -47 161 -131 171 -215 l6 -53 -68 56 c-84 69 -144 91 -230
85 -75 -6 -117 -26 -209 -96 l-71 -53 -11 48 c-7 26 -15 55 -18 64 -10 23 92
111 178 155 89 44 175 48 252 9z m-4061 -920 c44 -9 81 -18 83 -20 2 -2 -13
-13 -35 -24 -65 -34 -184 -135 -235 -202 -92 -118 -161 -294 -170 -433 -3 -39
-3 -40 -58 -51 -71 -14 -115 -45 -131 -93 -7 -20 -13 -84 -14 -142 -1 -108 -7
-131 -44 -164 -21 -19 -22 -19 -44 1 -29 27 -61 43 -85 43 -11 0 -30 16 -45
39 -64 96 -247 139 -373 86 -33 -13 -34 -13 -34 8 1 39 36 103 76 134 65 51
188 118 424 229 260 123 310 153 367 218 103 117 93 274 -21 341 -29 17 -58
25 -89 25 -63 0 -232 -58 -397 -136 l-135 -64 50 47 c28 25 102 88 164 139
113 92 116 93 180 99 37 4 95 12 131 19 65 12 65 12 210 -35 80 -26 181 -55
225 -64z m906 -56 c169 -102 252 -181 349 -331 71 -110 89 -154 125 -313 65
-285 35 -626 -74 -844 -38 -75 -166 -245 -227 -303 -39 -36 -214 -93 -369
-119 -93 -17 -148 -20 -245 -17 -159 6 -164 8 -153 62 4 22 8 82 8 131 0 77
-4 99 -27 148 -42 89 -183 226 -282 273 -26 13 -35 23 -31 33 14 35 35 155 35
195 0 151 -112 334 -236 387 l-56 24 6 62 c9 87 40 182 94 288 56 109 168 227
283 297 l75 45 255 6 c140 4 274 11 299 16 76 15 84 13 171 -40z m-1256 -79
c21 -40 19 -76 -6 -128 -29 -59 -85 -98 -259 -178 -301 -140 -492 -247 -569
-318 -49 -45 -81 -119 -81 -186 1 -81 15 -133 71 -251 49 -103 50 -107 39
-150 -7 -24 -22 -64 -35 -90 -29 -55 -114 -149 -121 -132 -3 6 -37 60 -75 120
-93 143 -193 334 -214 407 -21 72 -17 215 8 261 20 39 115 129 197 187 105 74
465 286 602 355 148 74 313 132 380 133 43 0 49 -3 63 -30z m1848 -198 c183
-113 224 -134 312 -157 163 -42 309 6 461 153 36 34 67 62 68 62 2 0 21 -28
44 -62 22 -35 59 -83 82 -108 l42 -45 -44 -38 c-98 -86 -328 -214 -426 -237
-112 -26 -182 -18 -368 44 l-171 56 -18 63 c-37 133 -88 229 -193 361 l-55 69
49 -29 c27 -15 124 -75 217 -132z m-1767 -526 c116 -54 189 -213 170 -368 -10
-82 -11 -83 -97 -65 -68 14 -75 14 -87 -1 -17 -22 -3 -34 77 -66 128 -52 195
-103 296 -225 65 -80 85 -131 85 -215 0 -88 -24 -167 -81 -271 -112 -201 -278
-400 -399 -477 -128 -81 -340 -138 -440 -117 -59 12 -139 51 -166 80 -25 27
-42 106 -34 151 4 21 10 41 12 44 3 2 19 -8 36 -24 105 -98 265 -101 503 -11
47 19 79 36 79 45 0 18 -2 18 -101 -7 -199 -49 -373 -7 -436 107 l-23 41 56
38 c188 130 314 392 316 655 1 112 -22 222 -62 300 -11 22 -20 41 -20 43 0 2
18 9 40 16 73 22 110 98 110 226 0 114 5 120 85 124 17 0 53 -10 81 -23z
m-695 -192 c73 -22 129 -79 148 -154 8 -30 17 -104 20 -165 5 -89 9 -110 21
-110 20 0 38 101 39 228 1 107 11 121 50 71 121 -154 117 -394 -10 -647 -71
-142 -175 -257 -269 -301 -69 -32 -168 -29 -245 8 -64 30 -64 31 8 41 36 5 47
10 47 24 0 19 -79 40 -229 61 -78 11 -97 19 -148 57 -67 51 -110 172 -98 272
11 86 54 294 64 304 4 4 21 -13 36 -40 16 -26 40 -64 55 -83 33 -42 90 -137
90 -150 0 -5 -18 -19 -41 -30 -31 -16 -40 -26 -37 -43 9 -62 143 -3 264 117
102 102 126 155 132 297 5 118 -11 166 -58 175 -16 4 -30 10 -30 14 0 5 -3 15
-6 24 -4 11 4 20 27 31 45 19 103 19 170 -1z m-681 -266 c-50 -108 -93 -289
-94 -400 l-1 -96 -90 -22 c-85 -21 -151 -49 -203 -87 -23 -16 -23 -16 -16 13
20 85 97 300 133 374 24 47 86 158 139 247 l97 162 32 -64 33 -64 -30 -63z
m2540 -692 c0 -1 -45 -33 -100 -71 -94 -63 -114 -85 -90 -100 5 -3 49 14 98
39 48 26 91 46 95 46 4 0 7 -25 7 -55 0 -79 36 -298 75 -455 41 -165 207 -590
282 -721 2 -3 -32 -22 -74 -44 -82 -40 -311 -117 -317 -106 -7 13 -56 232 -82
366 -57 301 -134 569 -211 734 -23 51 -43 97 -43 102 0 4 16 13 35 20 22 8 35
20 35 31 0 16 -11 18 -112 18 -152 0 -242 -20 -285 -62 -109 -105 -301 -858
-317 -1242 -3 -60 -7 -111 -10 -113 -11 -11 -304 -6 -357 5 l-56 13 34 147
c67 293 104 488 115 608 l12 123 42 16 c53 20 160 95 242 170 80 73 263 316
321 426 24 46 46 86 47 88 2 2 32 -4 66 -14 46 -13 96 -18 183 -18 112 0 287
22 338 43 27 11 27 11 27 6z m-1865 -277 c5 -16 0 -27 -18 -43 -14 -11 -32
-33 -41 -47 -18 -28 -84 -52 -189 -69 -50 -7 -51 -7 -27 9 47 32 138 111 154
135 14 23 29 28 98 34 9 1 20 -8 23 -19z m1453 -117 c34 -109 194 -727 206
-793 6 -36 6 -36 -40 -54 -60 -23 -186 -142 -226 -213 l-30 -52 -27 40 c-47
69 -138 125 -262 159 -39 11 -74 23 -77 26 -9 9 38 252 89 455 52 208 126 444
153 485 18 27 89 53 146 54 l35 1 33 -108z m1155 -691 c76 -70 107 -194 84
-341 -6 -41 -11 -100 -12 -130 0 -52 1 -55 25 -55 22 0 29 10 55 75 16 41 31
77 32 79 2 3 17 -8 33 -24 60 -57 87 -190 59 -290 -16 -58 -61 -118 -163 -220
-143 -142 -329 -255 -576 -350 -140 -55 -205 -69 -320 -69 -90 -1 -112 3 -152
22 -85 42 -144 152 -133 246 8 69 36 156 50 156 6 0 16 -5 22 -11 6 -6 21 -9
34 -7 31 4 38 42 11 57 -30 16 -141 157 -164 208 -29 65 -30 163 -1 219 21 39
152 191 179 207 10 5 16 -4 24 -35 6 -24 20 -67 31 -97 l19 -54 -45 6 c-55 6
-81 -12 -65 -43 33 -61 378 -21 557 65 44 22 96 58 133 94 52 49 61 63 58 87
-2 18 -12 33 -28 41 -27 13 -87 141 -73 154 8 6 121 34 173 42 56 9 125 -5
153 -32z m-2228 -243 c-8 -29 -21 -95 -31 -146 -16 -94 -16 -94 -43 -86 -14 4
-37 8 -51 8 -20 1 -25 -4 -25 -24 0 -19 13 -34 55 -62 72 -48 163 -77 282 -91
86 -10 108 -8 204 10 71 14 131 34 178 57 99 50 168 116 121 116 -9 0 -28 -6
-43 -14 -15 -7 -37 -17 -50 -21 l-24 -7 7 84 c9 122 12 130 38 123 51 -15 166
-74 199 -103 47 -42 79 -118 80 -191 1 -87 -27 -127 -153 -219 -70 -51 -99
-86 -99 -123 0 -31 23 -59 47 -59 9 0 36 11 60 25 38 23 44 24 49 10 11 -28
-6 -116 -35 -180 -50 -110 -124 -167 -263 -204 -286 -77 -630 -24 -983 151
-135 67 -185 118 -185 186 0 42 23 75 95 136 l55 48 39 -31 c43 -34 76 -40 85
-15 7 19 9 16 -77 128 -222 291 -177 368 293 497 123 34 171 46 182 48 3 1 0
-23 -7 -51z m2812 -492 c3 -2 -6 -51 -18 -108 -17 -80 -23 -146 -27 -296 -5
-231 8 -415 48 -657 16 -99 26 -183 22 -186 -22 -20 -387 -117 -398 -106 -2 2
-17 85 -33 186 -43 255 -53 414 -41 613 14 228 12 221 87 291 82 77 159 180
175 236 l13 44 84 -6 c46 -4 86 -8 88 -11z m443 -42 c258 -32 343 -47 540 -95
253 -62 433 -136 698 -286 128 -73 132 -76 111 -91 -66 -46 -701 -338 -989
-455 -173 -69 -699 -261 -704 -256 -11 11 -58 391 -73 579 -16 222 -10 415 18
579 l12 64 96 -7 c53 -4 184 -18 291 -32z m-943 -396 c-6 -35 -10 -178 -11
-318 -1 -245 0 -262 31 -439 18 -102 32 -185 30 -186 -4 -2 -481 -95 -522
-101 -22 -3 -83 -16 -135 -29 -209 -50 -358 -79 -409 -80 l-54 0 -14 50 c-24
86 -32 340 -17 550 11 159 28 290 39 303 2 2 40 -5 86 -14 156 -31 339 5 614
124 122 52 336 170 350 192 16 26 21 4 12 -52z m-2829 -157 c113 -56 243 -106
360 -137 l104 -28 65 -80 c74 -93 97 -134 147 -269 45 -119 88 -294 121 -490
36 -215 37 -210 -32 -242 -115 -54 -266 -115 -271 -110 -3 2 -11 55 -19 117
-20 159 -78 445 -109 536 -30 92 -97 217 -158 299 -110 146 -291 284 -389 299
l-49 7 68 68 c38 38 72 69 76 69 5 0 43 -17 86 -39z m1126 -193 c50 -77 145
-281 171 -368 28 -93 55 -249 55 -321 0 -51 -12 -66 -89 -114 -54 -33 -362
-188 -365 -183 -2 2 -11 62 -20 133 -42 327 -149 658 -254 785 -20 25 -42 52
-49 60 -10 13 10 15 165 16 113 1 202 7 247 16 106 23 107 23 139 -24z m-1268
-3 c64 -31 188 -136 253 -215 67 -80 143 -211 176 -301 44 -120 146 -653 130
-678 -11 -18 -478 -171 -691 -226 -73 -19 -211 -46 -308 -60 -194 -27 -518
-49 -580 -39 l-38 6 5 43 c12 85 110 300 219 480 350 580 445 723 613 929 l80
97 45 -6 c25 -3 68 -16 96 -30z"/>
<path d="M4508 11272 c-69 -33 -122 -124 -177 -310 -89 -300 -122 -644 -90
-955 14 -144 20 -161 51 -165 14 -2 28 3 31 10 2 8 0 58 -5 113 -19 198 8 555
58 770 37 157 91 329 120 386 38 77 89 87 220 44 42 -14 81 -25 85 -25 19 0
208 -86 308 -140 178 -96 278 -167 491 -347 55 -48 81 -63 99 -61 68 8 24 68
-168 234 -118 102 -315 244 -338 244 -5 0 -36 16 -69 36 -79 48 -215 107 -343
150 -121 39 -212 45 -273 16z"/>
<path d="M4577 11001 c-32 -39 -53 -105 -73 -236 -36 -226 16 -712 76 -723 9
-1 45 23 80 54 105 91 269 211 341 249 85 45 211 89 341 119 119 29 137 43
110 89 -61 104 -373 334 -572 421 -99 42 -126 50 -196 54 -80 4 -80 4 -107
-27z m156 -36 c127 -33 368 -180 555 -338 90 -76 91 -80 8 -92 -76 -11 -241
-62 -310 -97 -106 -53 -277 -178 -362 -266 -19 -19 -34 -31 -34 -26 0 5 -7 63
-15 129 -30 239 -13 553 35 662 22 49 32 52 123 28z"/>
<path d="M5884 9421 c-68 -41 -96 -108 -164 -381 -64 -259 -104 -510 -97 -610
9 -121 38 -192 97 -233 70 -48 129 -2 210 167 133 277 200 527 200 750 0 174
-35 272 -110 311 -40 21 -99 19 -136 -4z m-5 -195 c42 -50 10 -314 -52 -432
l-15 -29 -11 28 c-32 83 15 447 57 447 5 0 15 -6 21 -14z"/>
<path d="M5144 7726 c-42 -19 -111 -82 -130 -118 -8 -15 -12 -28 -9 -28 3 0 1
-9 -5 -20 -20 -37 15 -33 86 9 l68 41 42 -88 c36 -75 55 -101 126 -167 137
-130 201 -162 431 -220 169 -43 344 -58 366 -31 23 27 -2 43 -83 50 -147 13
-373 81 -492 147 -105 60 -234 190 -285 291 l-19 38 22 5 c13 3 52 6 88 7 65
3 65 3 65 33 0 23 -7 33 -30 45 -42 21 -200 25 -241 6z"/>
</g>
</svg>
